<svg height="510" width="720" xmlns="http://www.w3.org/2000/svg">
<rect height="510" fill="#555" width="720"></rect>
<text fill="#7f7" font-family="Courier New" font-size="12" xml:space="preserve">
<tspan x="10" y="26">18 megabytes installed</tspan>
<tspan x="10" y="42"></tspan>
<tspan x="10" y="58">node_modules</tspan>
<tspan x="10" y="74">├── UNMET PEER DEPENDENCY react@^15.5.3 || ~0.14.0</tspan>
<tspan x="10" y="90">├── UNMET PEER DEPENDENCY react-dom@^15.5.3 || ~0.14.0</tspan>
<tspan x="10" y="106">└─┬ react-pdf-js@1.0.35 </tspan>
<tspan x="10" y="122">  ├─┬ pdfjs-dist@1.8.177 </tspan>
<tspan x="10" y="138">  │ ├── node-ensure@0.0.0 </tspan>
<tspan x="10" y="154">  │ ├── UNMET PEER DEPENDENCY webpack@&gt;=0.9 &lt;2 || ^2.1.0-beta || ^2.2.0</tspan>
<tspan x="10" y="170">  │ └─┬ worker-loader@0.8.0 </tspan>
<tspan x="10" y="186">  │   └─┬ loader-utils@1.1.0 </tspan>
<tspan x="10" y="202">  │     ├── big.js@3.1.3 </tspan>
<tspan x="10" y="218">  │     ├── emojis-list@2.1.0 </tspan>
<tspan x="10" y="234">  │     └── json5@0.5.1 </tspan>
<tspan x="10" y="250">  └─┬ prop-types@15.5.8 </tspan>
<tspan x="10" y="266">    └─┬ fbjs@0.8.12 </tspan>
<tspan x="10" y="282">      ├── core-js@1.2.7 </tspan>
<tspan x="10" y="298">      ├─┬ isomorphic-fetch@2.2.1 </tspan>
<tspan x="10" y="314">      │ ├─┬ node-fetch@1.6.3 </tspan>
<tspan x="10" y="330">      │ │ ├─┬ encoding@0.1.12 </tspan>
<tspan x="10" y="346">      │ │ │ └── iconv-lite@0.4.15 </tspan>
<tspan x="10" y="362">      │ │ └── is-stream@1.1.0 </tspan>
<tspan x="10" y="378">      │ └── whatwg-fetch@2.0.3 </tspan>
<tspan x="10" y="394">      ├─┬ loose-envify@1.3.1 </tspan>
<tspan x="10" y="410">      │ └── js-tokens@3.0.1 </tspan>
<tspan x="10" y="426">      ├── object-assign@4.1.1 </tspan>
<tspan x="10" y="442">      ├─┬ promise@7.1.1 </tspan>
<tspan x="10" y="458">      │ └── asap@2.0.5 </tspan>
<tspan x="10" y="474">      ├── setimmediate@1.0.5 </tspan>
<tspan x="10" y="490">      └── ua-parser-js@0.7.12</tspan>
</text>
</svg>
